<mxfile host="Electron" modified="2024-05-14T18:46:17.215Z" agent="Mozilla/5.0 (Windows NT 10.0; Win64; x64) AppleWebKit/537.36 (KHTML, like Gecko) draw.io/24.2.5 Chrome/120.0.6099.109 Electron/28.1.0 Safari/537.36" etag="jQdubuewZ8mZv-5gwHip" version="24.2.5" type="device">
  <diagram name="Page-1" id="dRA0m_05Vx4ahS81qa1Y">
    <mxGraphModel dx="1434" dy="836" grid="1" gridSize="10" guides="1" tooltips="1" connect="1" arrows="1" fold="1" page="1" pageScale="1" pageWidth="850" pageHeight="1100" math="0" shadow="0">
      <root>
        <mxCell id="0" />
        <mxCell id="1" parent="0" />
        <mxCell id="qnKoRSLpV0FMRq9Z16BY-7" style="edgeStyle=orthogonalEdgeStyle;rounded=0;orthogonalLoop=1;jettySize=auto;html=1;startArrow=classic;startFill=1;labelBackgroundColor=none;strokeColor=#23445D;fontColor=default;" parent="1" source="qnKoRSLpV0FMRq9Z16BY-1" target="qnKoRSLpV0FMRq9Z16BY-2" edge="1">
          <mxGeometry relative="1" as="geometry" />
        </mxCell>
        <mxCell id="qnKoRSLpV0FMRq9Z16BY-1" value="Service Layer" style="rounded=1;whiteSpace=wrap;html=1;labelBackgroundColor=none;fillColor=#182E3E;strokeColor=#FFFFFF;fontColor=#FFFFFF;" parent="1" vertex="1">
          <mxGeometry x="195" y="150" width="230" height="40" as="geometry" />
        </mxCell>
        <mxCell id="qnKoRSLpV0FMRq9Z16BY-8" style="edgeStyle=orthogonalEdgeStyle;rounded=0;orthogonalLoop=1;jettySize=auto;html=1;entryX=0.5;entryY=0;entryDx=0;entryDy=0;startArrow=classic;startFill=1;labelBackgroundColor=none;strokeColor=#23445D;fontColor=default;" parent="1" source="qnKoRSLpV0FMRq9Z16BY-2" target="qnKoRSLpV0FMRq9Z16BY-3" edge="1">
          <mxGeometry relative="1" as="geometry" />
        </mxCell>
        <mxCell id="qnKoRSLpV0FMRq9Z16BY-2" value="Data Access Layer" style="rounded=1;whiteSpace=wrap;html=1;labelBackgroundColor=none;fillColor=#182E3E;strokeColor=#FFFFFF;fontColor=#FFFFFF;" parent="1" vertex="1">
          <mxGeometry x="195" y="230" width="230" height="40" as="geometry" />
        </mxCell>
        <mxCell id="qnKoRSLpV0FMRq9Z16BY-3" value="Infrastructure Layer" style="rounded=1;whiteSpace=wrap;html=1;labelBackgroundColor=none;fillColor=#182E3E;strokeColor=#FFFFFF;fontColor=#FFFFFF;" parent="1" vertex="1">
          <mxGeometry x="195" y="310" width="230" height="40" as="geometry" />
        </mxCell>
        <mxCell id="qnKoRSLpV0FMRq9Z16BY-5" style="edgeStyle=orthogonalEdgeStyle;rounded=0;orthogonalLoop=1;jettySize=auto;html=1;strokeColor=none;startArrow=blockThin;startFill=1;labelBackgroundColor=none;fontColor=default;" parent="1" source="qnKoRSLpV0FMRq9Z16BY-4" target="qnKoRSLpV0FMRq9Z16BY-1" edge="1">
          <mxGeometry relative="1" as="geometry" />
        </mxCell>
        <mxCell id="qnKoRSLpV0FMRq9Z16BY-6" style="edgeStyle=orthogonalEdgeStyle;rounded=0;orthogonalLoop=1;jettySize=auto;html=1;startArrow=block;startFill=1;labelBackgroundColor=none;strokeColor=#23445D;fontColor=default;" parent="1" source="qnKoRSLpV0FMRq9Z16BY-4" edge="1">
          <mxGeometry relative="1" as="geometry">
            <mxPoint x="310" y="149.9999999999999" as="targetPoint" />
          </mxGeometry>
        </mxCell>
        <mxCell id="qnKoRSLpV0FMRq9Z16BY-4" value="Presentation Layer" style="rounded=1;whiteSpace=wrap;html=1;labelBackgroundColor=none;fillColor=#182E3E;strokeColor=#FFFFFF;fontColor=#FFFFFF;" parent="1" vertex="1">
          <mxGeometry x="195" y="70" width="230" height="40" as="geometry" />
        </mxCell>
      </root>
    </mxGraphModel>
  </diagram>
</mxfile>
